<?xml version="1.0" encoding="UTF-8"?>
<svg width="217px" height="65px" viewBox="0 0 217 65" version="1.1" xmlns="http://www.w3.org/2000/svg" xmlns:xlink="http://www.w3.org/1999/xlink">
    <!-- Generator: Sketch 42 (36781) - http://www.bohemiancoding.com/sketch -->
    <title>Download_on_the_App_Store_Badge_US-UK_135x40</title>
    <desc>Created with Sketch.</desc>
    <defs></defs>
    <g id="Support-Site" stroke="none" stroke-width="1" fill="none" fill-rule="evenodd">
        <g id="Desktop-Landscape" transform="translate(-636.000000, -423.000000)" fill-rule="nonzero">
            <g id="Group-11" transform="translate(155.000000, 190.000000)">
                <g id="Group-8" transform="translate(481.000000, 216.000000)">
                    <g id="Download_on_the_App_Store_Badge_US-UK_135x40" transform="translate(0.000000, 17.600000)">
                        <g id="US_UK_Download_on_the">
                            <g id="Group">
                                <path d="M208.400435,64 L7.56949591,64 C3.3965892,64 0,60.5952 0,56.4272 L0,7.5616 C0,3.392 3.3965892,3.55271368e-15 7.56949591,3.55271368e-15 L208.400435,3.55271368e-15 C212.571741,3.55271368e-15 216.08838,3.392 216.08838,7.5616 L216.08838,56.4272 C216.08838,60.5952 212.571741,64 208.400435,64 L208.400435,64 Z" id="Shape" fill="#A6A6A6"></path>
                                <path d="M214.538946,56.4288 C214.538946,59.8144 211.795424,62.5568 208.402036,62.5568 L7.56949591,62.5568 C4.17770867,62.5568 1.42458265,59.8144 1.42458265,56.4288 L1.42458265,7.56 C1.42458265,4.176 4.17770867,1.424 7.56949591,1.424 L208.400435,1.424 C211.795424,1.424 214.537345,4.176 214.537345,7.56 L214.538946,56.4288 L214.538946,56.4288 Z" id="Shape" fill="#000000"></path>
                                <g transform="translate(20.207856, 9.600000)" id="Shape" fill="#FFFFFF">
                                    <path d="M28.0166678,22.0544 C27.9702488,16.8976 32.2407954,14.3888 32.4360753,14.272 C30.0174861,10.7472 26.2687529,10.2656 24.9514141,10.2272 C21.8029264,9.896 18.7488773,12.1104 17.1450213,12.1104 C15.5091522,12.1104 13.0393421,10.2592 10.3774534,10.3136 C6.95205237,10.3664 3.74754173,12.3488 1.99002291,15.4272 C-1.63706056,21.704 1.06804583,30.928 4.5430671,36.0016 C6.28137807,38.4864 8.31260884,41.2608 10.9712962,41.1632 C13.5723601,41.056 14.5439574,39.5056 17.6828412,39.5056 C20.7929133,39.5056 21.7052864,41.1632 24.4167954,41.1008 C27.2083372,41.056 28.965856,38.6048 30.6433421,36.0976 C32.6521637,33.2496 33.4588936,30.4448 33.4909067,30.3008 C33.4252799,30.2784 28.0694894,28.2352 28.0166678,22.0544 Z"></path>
                                    <path d="M22.8945728,6.8896 C24.293545,5.1408 25.2507365,2.7616 24.9850278,0.3472 C22.9601997,0.4368 20.427964,1.7472 18.9697676,3.4576 C17.6796399,4.9648 16.5271686,7.4352 16.8248903,9.7584 C19.0994206,9.928 21.4347758,8.6112 22.8945728,6.8896 Z"></path>
                                </g>
                                <g transform="translate(67.227496, 28.800000)" id="Shape" fill="#FFFFFF">
                                    <path d="M18.6396236,21.6064 L15.0045368,21.6064 L13.0133224,15.352 L6.09209165,15.352 L4.19531588,21.6064 L0.656268412,21.6064 L7.513473,0.3136 L11.7488052,0.3136 L18.6396236,21.6064 Z M12.4130769,12.728 L10.6123404,7.168 C10.4218625,6.6 10.0649165,5.2624 9.53830115,3.1568 L9.47427496,3.1568 C9.2645892,4.0624 8.92685106,5.4 8.46266121,7.168 L6.69393781,12.728 L12.4130769,12.728 L12.4130769,12.728 Z"></path>
                                    <path d="M36.274036,13.7408 C36.274036,16.352 35.5681473,18.416 34.1563699,19.9312 C32.8918527,21.28 31.3216105,21.9536 29.4472439,21.9536 C27.4240164,21.9536 25.9706219,21.2272 25.0854599,19.7744 L25.0214337,19.7744 L25.0214337,27.8624 L21.608838,27.8624 L21.608838,11.3072 C21.608838,9.6656 21.5656203,7.9808 21.4823863,6.2528 L24.4836137,6.2528 L24.6740917,8.6864 L24.7381178,8.6864 C25.8761833,6.8528 27.6032897,5.9376 29.9210376,5.9376 C31.7329787,5.9376 33.2455974,6.6528 34.4556923,8.0848 C35.6689885,9.5184 36.274036,11.4032 36.274036,13.7408 Z M32.7974141,13.8656 C32.7974141,12.3712 32.4612766,11.1392 31.7858003,10.1696 C31.0478985,9.1584 30.0570933,8.6528 28.8149853,8.6528 C27.9730409,8.6528 27.207928,8.9344 26.5244484,9.4896 C25.8393682,10.0496 25.3911849,10.7808 25.1814992,11.6864 C25.075856,12.1088 25.0230344,12.4544 25.0230344,12.7264 L25.0230344,15.2864 C25.0230344,16.4032 25.3655745,17.3456 26.0506547,18.1152 C26.7357349,18.8848 27.6256989,19.2688 28.7205466,19.2688 C30.0058723,19.2688 31.0062815,18.7728 31.7217741,17.784 C32.4388674,16.7936 32.7974141,15.488 32.7974141,13.8656 Z"></path>
                                    <path d="M53.9404615,13.7408 C53.9404615,16.352 53.2345728,18.416 51.8211948,19.9312 C50.5582782,21.28 48.988036,21.9536 47.1136694,21.9536 C45.0904419,21.9536 43.6370475,21.2272 42.7534861,19.7744 L42.6894599,19.7744 L42.6894599,27.8624 L39.2768642,27.8624 L39.2768642,11.3072 C39.2768642,9.6656 39.2336465,7.9808 39.1504124,6.2528 L42.1516399,6.2528 L42.3421178,8.6864 L42.406144,8.6864 C43.5426088,6.8528 45.2697152,5.9376 47.5890638,5.9376 C49.3994043,5.9376 50.9120229,6.6528 52.1253191,8.0848 C53.3338134,9.5184 53.9404615,11.4032 53.9404615,13.7408 Z M50.4638396,13.8656 C50.4638396,12.3712 50.1261015,11.1392 49.4506252,10.1696 C48.7127234,9.1584 47.7251195,8.6528 46.4814108,8.6528 C45.6378658,8.6528 44.8743535,8.9344 44.1892733,9.4896 C43.5041931,10.0496 43.0576105,10.7808 42.8479247,11.6864 C42.7438822,12.1088 42.6894599,12.4544 42.6894599,12.7264 L42.6894599,15.2864 C42.6894599,16.4032 43.032,17.3456 43.7138789,18.1152 C44.3989591,18.8832 45.2889231,19.2688 46.3869722,19.2688 C47.6722979,19.2688 48.672707,18.7728 49.3881997,17.784 C50.105293,16.7936 50.4638396,15.488 50.4638396,13.8656 Z"></path>
                                    <path d="M73.6925401,15.6352 C73.6925401,17.4464 73.0634828,18.92 71.8005663,20.0576 C70.4127987,21.3008 68.4808085,21.9216 65.9981931,21.9216 C63.7060556,21.9216 61.8685041,21.48 60.4775352,20.5952 L61.2682586,17.752 C62.7664714,18.6576 64.4103437,19.112 66.2014763,19.112 C67.486802,19.112 68.4872111,18.8208 69.2059051,18.2416 C69.9213977,17.6624 70.2783437,16.8848 70.2783437,15.9152 C70.2783437,15.0512 69.9838232,14.3232 69.3931817,13.7328 C68.8057414,13.1424 67.8245401,12.5936 66.4543797,12.0864 C62.7248543,10.696 60.8616923,8.6592 60.8616923,5.9808 C60.8616923,4.2304 61.5147594,2.7952 62.8224943,1.6784 C64.1254272,0.56 65.8637381,0.0016 68.0374272,0.0016 C69.97582,0.0016 71.5860786,0.3392 72.8714043,1.0128 L72.0182553,3.7936 C70.8177643,3.1408 69.4604092,2.8144 67.9413879,2.8144 C66.7408969,2.8144 65.8029133,3.1104 65.1306383,3.6992 C64.5624059,4.2256 64.2774894,4.8672 64.2774894,5.6272 C64.2774894,6.4688 64.6024223,7.1648 65.2554894,7.712 C65.8237218,8.2176 66.856144,8.7648 68.3543568,9.3552 C70.1871064,10.0928 71.533257,10.9552 72.3992111,11.944 C73.261964,12.9296 73.6925401,14.1632 73.6925401,15.6352 Z"></path>
                                    <path d="M84.9755548,8.8128 L81.2140164,8.8128 L81.2140164,16.2672 C81.2140164,18.1632 81.8766874,19.1104 83.2052308,19.1104 C83.8150802,19.1104 84.3208871,19.0576 84.7210507,18.952 L84.8154894,21.5424 C84.1432144,21.7936 83.2580524,21.92 82.1616039,21.92 C80.8138527,21.92 79.7606219,21.5088 79.000311,20.688 C78.2432013,19.8656 77.8622455,18.4864 77.8622455,16.5488 L77.8622455,8.8096 L75.621329,8.8096 L75.621329,6.2496 L77.8622455,6.2496 L77.8622455,3.4384 L81.2140164,2.4272 L81.2140164,6.2496 L84.9755548,6.2496 L84.9755548,8.8128 Z"></path>
                                    <path d="M101.947296,13.8032 C101.947296,16.1632 101.27182,18.1008 99.9240687,19.616 C98.5106907,21.176 96.6347234,21.9536 94.2961669,21.9536 C92.0424452,21.9536 90.2481113,21.2064 88.909964,19.712 C87.5718167,18.2176 86.902743,16.3312 86.902743,14.0576 C86.902743,11.6784 87.5910245,9.7296 88.9723895,8.2144 C90.3505532,6.6976 92.2105139,5.9392 94.5490704,5.9392 C96.8027921,5.9392 98.6163339,6.6864 99.9848936,8.1824 C101.294229,9.6336 101.947296,11.5072 101.947296,13.8032 Z M98.4066481,13.9136 C98.4066481,12.4976 98.1041244,11.2832 97.4910736,10.2704 C96.775581,9.0448 95.7527627,8.4336 94.4274206,8.4336 C93.0556596,8.4336 92.0136334,9.0464 91.2981408,10.2704 C90.68509,11.2848 90.3825663,12.5184 90.3825663,13.9776 C90.3825663,15.3936 90.68509,16.608 91.2981408,17.6192 C92.0360426,18.8448 93.0668642,19.456 94.3970082,19.456 C95.6999411,19.456 96.7227594,18.832 97.4606612,17.5872 C98.0897185,16.5552 98.4066481,15.328 98.4066481,13.9136 Z"></path>
                                    <path d="M113.039833,9.2528 C112.702095,9.1904 112.341948,9.1584 111.964193,9.1584 C110.763702,9.1584 109.835322,9.6112 109.182255,10.5184 C108.614023,11.3184 108.329106,12.3296 108.329106,13.5504 L108.329106,21.6064 L104.918111,21.6064 L104.950124,11.088 C104.950124,9.3184 104.906907,7.7072 104.822072,6.2544 L107.794488,6.2544 L107.919339,9.192 L108.013777,9.192 C108.373925,8.1824 108.942157,7.3696 109.720075,6.76 C110.480386,6.2112 111.301522,5.9376 112.186684,5.9376 C112.502013,5.9376 112.78693,5.96 113.039833,6 L113.039833,9.2528 Z"></path>
                                    <path d="M128.302075,13.2032 C128.302075,13.8144 128.262059,14.3296 128.177224,14.7504 L117.939437,14.7504 C117.979453,16.2672 118.474056,17.4272 119.424845,18.2272 C120.287597,18.9424 121.403254,19.3008 122.773414,19.3008 C124.289234,19.3008 125.6722,19.0592 126.915908,18.5744 L127.450527,20.9424 C125.997133,21.576 124.281231,21.8912 122.301221,21.8912 C119.919447,21.8912 118.049882,21.1904 116.689326,19.7904 C115.331971,18.3904 114.651692,16.5104 114.651692,14.152 C114.651692,11.8368 115.283951,9.9088 116.550069,8.3712 C117.875411,6.7296 119.666543,5.9088 121.920265,5.9088 C124.133971,5.9088 125.809856,6.7296 126.947921,8.3712 C127.84909,9.6752 128.302075,11.288 128.302075,13.2032 Z M125.047944,12.3184 C125.070354,11.3072 124.847863,10.4336 124.385273,9.696 C123.794632,8.7472 122.887061,8.2736 121.665761,8.2736 C120.550105,8.2736 119.642534,8.736 118.94945,9.664 C118.381218,10.4016 118.04348,11.2864 117.939437,12.3168 L125.047944,12.3168 L125.047944,12.3184 Z"></path>
                                </g>
                                <g transform="translate(69.828151, 9.600000)" id="Shape" fill="#FFFFFF">
                                    <path d="M8.68396072,6.4144 C8.68396072,8.2976 8.11892962,9.7152 6.99046809,10.6672 C5.94524059,11.5456 4.45983306,11.9856 2.53584615,11.9856 C1.58185597,11.9856 0.765522095,11.944 0.0820425532,11.8608 L0.0820425532,1.5712 C0.973607201,1.4272 1.934,1.3536 2.97122422,1.3536 C4.80397381,1.3536 6.18533879,1.752 7.1169198,2.5488 C8.16054664,3.4496 8.68396072,4.7376 8.68396072,6.4144 Z M6.91523732,6.4608 C6.91523732,5.24 6.59190507,4.304 5.94524059,3.6512 C5.2985761,3 4.35418985,2.6736 3.11048118,2.6736 C2.58226514,2.6736 2.13248118,2.7088 1.75952864,2.7824 L1.75952864,10.6048 C1.96601309,10.6368 2.34376759,10.6512 2.89279214,10.6512 C4.17651718,10.6512 5.16732242,10.2944 5.86520786,9.5808 C6.56309329,8.8672 6.91523732,7.8272 6.91523732,6.4608 Z"></path>
                                    <path d="M18.0621964,8.0592 C18.0621964,9.2192 17.7308609,10.1696 17.0681899,10.9152 C16.3735057,11.6816 15.4531293,12.064 14.3038592,12.064 C13.1962062,12.064 12.3142455,11.6976 11.6563764,10.9616 C11.000108,10.2272 10.6719738,9.3008 10.6719738,8.184 C10.6719738,7.016 11.0097119,6.0576 11.6883895,5.3136 C12.3670671,4.5696 13.2794403,4.1968 14.4287103,4.1968 C15.5363633,4.1968 16.4263273,4.5632 17.1002029,5.2976 C17.7404648,6.0112 18.0621964,6.9328 18.0621964,8.0592 Z M16.3222848,8.1136 C16.3222848,7.4176 16.1718232,6.8208 15.8725008,6.3232 C15.5203568,5.7216 15.0193519,5.4208 14.3678854,5.4208 C13.6940098,5.4208 13.1818003,5.7216 12.8296563,6.3232 C12.5287332,6.8208 12.3798723,7.4272 12.3798723,8.144 C12.3798723,8.84 12.5303339,9.4368 12.8296563,9.9344 C13.1930049,10.536 13.6988118,10.8368 14.3518789,10.8368 C14.9921408,10.8368 15.4947463,10.5312 15.8564943,9.9184 C16.1670213,9.4112 16.3222848,8.8096 16.3222848,8.1136 Z"></path>
                                    <path d="M30.6369394,4.3504 L28.2759738,11.8928 L26.7393453,11.8928 L25.7613453,8.6176 C25.5132439,7.8 25.3115614,6.9872 25.1546972,6.1808 L25.1242848,6.1808 C24.9786252,7.0096 24.7769427,7.8208 24.5176367,8.6176 L23.4788118,11.8928 L21.9245761,11.8928 L19.7044681,4.3504 L21.4283732,4.3504 L22.2815221,7.936 C22.4880065,8.784 22.6576759,9.592 22.7937316,10.3568 L22.824144,10.3568 C22.9489951,9.7264 23.1554795,8.9232 23.4467987,7.952 L24.5176367,4.352 L25.8845957,4.352 L26.9106154,7.8752 C27.1587169,8.7344 27.3603993,9.5616 27.5156628,10.3584 L27.5620818,10.3584 C27.6757283,9.5824 27.8469984,8.7552 28.0742913,7.8752 L28.9898658,4.352 L30.6369394,4.352 L30.6369394,4.3504 Z"></path>
                                    <path d="M39.3332962,11.8928 L37.6558101,11.8928 L37.6558101,7.5728 C37.6558101,6.2416 37.1500033,5.576 36.1351882,5.576 C35.6373846,5.576 35.2356203,5.7584 34.9234926,6.1248 C34.6145663,6.4912 34.4577021,6.9232 34.4577021,7.4176 L34.4577021,11.8912 L32.780216,11.8912 L32.780216,6.5056 C32.780216,5.8432 32.7594075,5.1248 32.7193912,4.3472 L34.1935941,4.3472 L34.2720262,5.5264 L34.3184452,5.5264 C34.513725,5.16 34.8050442,4.8576 35.1876007,4.616 C35.6421866,4.3344 36.1511948,4.192 36.7082226,4.192 C37.4125106,4.192 37.9983502,4.4192 38.4641408,4.8752 C39.0435777,5.4336 39.3332962,6.2672 39.3332962,7.3744 L39.3332962,11.8928 L39.3332962,11.8928 Z"></path>
                                    <polygon points="43.9591882 11.8928 42.2833028 11.8928 42.2833028 0.8896 43.9591882 0.8896"></polygon>
                                    <path d="M53.8352275,8.0592 C53.8352275,9.2192 53.503892,10.1696 52.8412209,10.9152 C52.1465368,11.6816 51.2245597,12.064 50.0768903,12.064 C48.9676367,12.064 48.0856759,11.6976 47.4294075,10.9616 C46.7731391,10.2272 46.4450049,9.3008 46.4450049,8.184 C46.4450049,7.016 46.782743,6.0576 47.4614206,5.3136 C48.1400982,4.5696 49.0524714,4.1968 50.2001408,4.1968 C51.3093944,4.1968 52.1977578,4.5632 52.873234,5.2976 C53.5134959,6.0112 53.8352275,6.9328 53.8352275,8.0592 Z M52.0937152,8.1136 C52.0937152,7.4176 51.9432537,6.8208 51.6439313,6.3232 C51.2933879,5.7216 50.7907823,5.4208 50.1409165,5.4208 C49.4654403,5.4208 48.9532308,5.7216 48.6026874,6.3232 C48.3017643,6.8208 48.1529034,7.4272 48.1529034,8.144 C48.1529034,8.84 48.303365,9.4368 48.6026874,9.9344 C48.966036,10.536 49.4718429,10.8368 50.12491,10.8368 C50.7651718,10.8368 51.2661768,10.5312 51.6279247,9.9184 C51.9400524,9.4112 52.0937152,8.8096 52.0937152,8.1136 Z"></path>
                                    <path d="M61.953748,11.8928 L60.4475319,11.8928 L60.3226809,11.024 L60.2762619,11.024 C59.7608511,11.7168 59.0261506,12.064 58.0721604,12.064 C57.3598691,12.064 56.7836334,11.8352 56.349856,11.3808 C55.9560949,10.968 55.7592144,10.4544 55.7592144,9.8448 C55.7592144,8.9232 56.1433715,8.2208 56.9164877,7.7344 C57.6880033,7.248 58.7732471,7.0096 60.1706187,7.0208 L60.1706187,6.88 C60.1706187,5.8864 59.6488052,5.3904 58.6035777,5.3904 C57.8592733,5.3904 57.2030049,5.5776 56.6363732,5.9488 L56.2954337,4.848 C56.9965205,4.4144 57.8624746,4.1968 58.8836923,4.1968 C60.8556989,4.1968 61.8449034,5.2368 61.8449034,7.3168 L61.8449034,10.0944 C61.8449034,10.848 61.8817185,11.448 61.953748,11.8928 Z M60.2122357,9.3008 L60.2122357,8.1376 C58.3618789,8.1056 57.4367005,8.6128 57.4367005,9.6576 C57.4367005,10.0512 57.5423437,10.3456 57.7584321,10.5424 C57.9745205,10.7392 58.2498331,10.8368 58.5779673,10.8368 C58.9461178,10.8368 59.2902586,10.72 59.6039869,10.488 C59.9193159,10.2544 60.1129951,9.9584 60.1850245,9.5952 C60.2026318,9.5136 60.2122357,9.4144 60.2122357,9.3008 Z"></path>
                                    <path d="M71.4856465,11.8928 L69.9970376,11.8928 L69.9186056,10.6816 L69.8721866,10.6816 C69.3967921,11.6032 68.5868609,12.064 67.4487954,12.064 C66.5396236,12.064 65.7825139,11.7072 65.1822684,10.9936 C64.5820229,10.28 64.2827005,9.3536 64.2827005,8.216 C64.2827005,6.9952 64.6076334,6.0064 65.2607005,5.2512 C65.8929591,4.5472 66.6676759,4.1952 67.589653,4.1952 C68.6028674,4.1952 69.3119574,4.536 69.7153224,5.2192 L69.7473355,5.2192 L69.7473355,0.8896 L71.4264223,0.8896 L71.4264223,9.8608 C71.4264223,10.5952 71.4456301,11.272 71.4856465,11.8928 Z M69.7473355,8.712 L69.7473355,7.4544 C69.7473355,7.2368 69.731329,7.0608 69.7009165,6.9264 C69.6064779,6.5232 69.4031948,6.184 69.0942684,5.9104 C68.7821408,5.6368 68.4059869,5.4992 67.9722095,5.4992 C67.3463535,5.4992 66.8565532,5.7472 66.4964059,6.2448 C66.1394599,6.7424 65.9585859,7.3776 65.9585859,8.1536 C65.9585859,8.8992 66.129856,9.504 66.4739967,9.9696 C66.8373453,10.4656 67.3271457,10.7136 67.9401964,10.7136 C68.4908216,10.7136 68.9310016,10.5072 69.2655385,10.0928 C69.5888707,9.7104 69.7473355,9.2496 69.7473355,8.712 Z"></path>
                                    <path d="M85.8323142,8.0592 C85.8323142,9.2192 85.5009787,10.1696 84.8383077,10.9152 C84.1436236,11.6816 83.2248478,12.064 82.0739771,12.064 C80.9679247,12.064 80.085964,11.6976 79.4264943,10.9616 C78.7702259,10.2272 78.4420917,9.3008 78.4420917,8.184 C78.4420917,7.016 78.7798298,6.0576 79.4585074,5.3136 C80.1371849,4.5696 81.0495581,4.1968 82.2004288,4.1968 C83.3064812,4.1968 84.1980458,4.5632 84.8703208,5.2976 C85.5105827,6.0112 85.8323142,6.9328 85.8323142,8.0592 Z M84.0940033,8.1136 C84.0940033,7.4176 83.9435417,6.8208 83.6442193,6.3232 C83.2904746,5.7216 82.7910704,5.4208 82.1380033,5.4208 C81.4657283,5.4208 80.9535188,5.7216 80.5997741,6.3232 C80.2988511,6.8208 80.1499902,7.4272 80.1499902,8.144 C80.1499902,8.84 80.3004517,9.4368 80.5997741,9.9344 C80.9631227,10.536 81.4689296,10.8368 82.1219967,10.8368 C82.7622586,10.8368 83.2664648,10.5312 83.6282128,9.9184 C83.9371391,9.4112 84.0940033,8.8096 84.0940033,8.1136 Z"></path>
                                    <path d="M94.8520033,11.8928 L93.1761178,11.8928 L93.1761178,7.5728 C93.1761178,6.2416 92.670311,5.576 91.6538953,5.576 C91.1560917,5.576 90.7543273,5.7584 90.4438003,6.1248 C90.1332733,6.4912 89.9780098,6.9232 89.9780098,7.4176 L89.9780098,11.8912 L88.2989231,11.8912 L88.2989231,6.5056 C88.2989231,5.8432 88.2797152,5.1248 88.2396989,4.3472 L89.7123011,4.3472 L89.7907332,5.5264 L89.8371522,5.5264 C90.0340327,5.16 90.3253519,4.8576 90.7063077,4.616 C91.1624943,4.3344 91.6699018,4.192 92.2285303,4.192 C92.9312177,4.192 93.5170573,4.4192 93.9828478,4.8752 C94.5638854,5.4336 94.8520033,6.2672 94.8520033,7.3744 L94.8520033,11.8928 L94.8520033,11.8928 Z"></path>
                                    <path d="M106.141421,5.6064 L104.294265,5.6064 L104.294265,9.2704 C104.294265,10.2016 104.622399,10.6672 105.272265,10.6672 C105.573188,10.6672 105.82289,10.6416 106.019771,10.5888 L106.062989,11.8608 C105.731653,11.9856 105.296275,12.048 104.760056,12.048 C104.097385,12.048 103.581974,11.8464 103.209021,11.4432 C102.834468,11.04 102.648792,10.3616 102.648792,9.4096 L102.648792,5.6064 L101.545941,5.6064 L101.545941,4.3504 L102.648792,4.3504 L102.648792,2.968 L104.292664,2.472 L104.292664,4.3488 L106.13982,4.3488 L106.13982,5.6064 L106.141421,5.6064 Z"></path>
                                    <path d="M115.021853,11.8928 L113.342766,11.8928 L113.342766,7.6048 C113.342766,6.2528 112.836959,5.576 111.823745,5.576 C111.045827,5.576 110.514409,5.968 110.22309,6.752 C110.17347,6.9168 110.144658,7.1184 110.144658,7.3552 L110.144658,11.8912 L108.468773,11.8912 L108.468773,0.8896 L110.144658,0.8896 L110.144658,5.4352 L110.176671,5.4352 C110.704887,4.608 111.461997,4.1952 112.443198,4.1952 C113.137882,4.1952 113.712517,4.4224 114.168704,4.8784 C114.736936,5.4464 115.021853,6.2912 115.021853,7.408 L115.021853,11.8928 L115.021853,11.8928 Z"></path>
                                    <path d="M124.182399,7.7648 C124.182399,8.0656 124.15999,8.3184 124.119974,8.5248 L119.089116,8.5248 C119.111525,9.2704 119.351624,9.8384 119.817414,10.232 C120.243188,10.584 120.792213,10.76 121.464488,10.76 C122.208792,10.76 122.88747,10.6416 123.49892,10.4032 L123.761427,11.568 C123.045935,11.8784 122.20399,12.0336 121.229191,12.0336 C120.060714,12.0336 119.140337,11.6896 118.474465,11.0016 C117.805391,10.3136 117.474056,9.3904 117.474056,8.232 C117.474056,7.0944 117.782982,6.1472 118.405637,5.392 C119.055502,4.5856 119.934262,4.1824 121.043516,4.1824 C122.128759,4.1824 122.953097,4.5856 123.510124,5.392 C123.959908,6.032 124.182399,6.824 124.182399,7.7648 Z M122.581745,7.3312 C122.59455,6.8336 122.484105,6.4048 122.256812,6.0432 C121.965493,5.5776 121.522111,5.344 120.921866,5.344 C120.374442,5.344 119.927859,5.5712 119.58692,6.0272 C119.308406,6.3904 119.143538,6.824 119.089116,7.3312 L122.581745,7.3312 Z"></path>
                                </g>
                            </g>
                        </g>
                    </g>
                </g>
            </g>
        </g>
    </g>
</svg>