<?xml version="1.0" encoding="UTF-8"?>
<svg width="149px" height="145px" viewBox="0 0 149 145" version="1.1" xmlns="http://www.w3.org/2000/svg" xmlns:xlink="http://www.w3.org/1999/xlink">
    <!-- Generator: Sketch 42 (36781) - http://www.bohemiancoding.com/sketch -->
    <title>Group</title>
    <desc>Created with Sketch.</desc>
    <defs>
        <path d="M0,11.5114968 C0,5.15387267 5.15703767,-1.42108547e-14 11.5153773,-1.42108547e-14 L90.1989529,-1.42108547e-14 L71.6285802,128.127585 L11.5282536,128.657866 C5.16137495,128.714042 0,123.592658 0,117.248085 L0,11.5114968 Z" id="path-1"></path>
        <filter x="-50%" y="-50%" width="200%" height="200%" filterUnits="objectBoundingBox" id="filter-2">
            <feOffset dx="1" dy="1" in="SourceAlpha" result="shadowOffsetOuter1"></feOffset>
            <feGaussianBlur stdDeviation="1" in="shadowOffsetOuter1" result="shadowBlurOuter1"></feGaussianBlur>
            <feColorMatrix values="0 0 0 0 0   0 0 0 0 0   0 0 0 0 0  0 0 0 0.5 0" type="matrix" in="shadowBlurOuter1"></feColorMatrix>
        </filter>
        <filter x="-50%" y="-50%" width="200%" height="200%" filterUnits="objectBoundingBox" id="filter-3">
            <feOffset dx="0" dy="2" in="SourceAlpha" result="shadowOffsetOuter1"></feOffset>
            <feGaussianBlur stdDeviation="1.5" in="shadowOffsetOuter1" result="shadowBlurOuter1"></feGaussianBlur>
            <feColorMatrix values="0 0 0 0 0   0 0 0 0 0   0 0 0 0 0  0 0 0 0.5 0" type="matrix" in="shadowBlurOuter1" result="shadowMatrixOuter1"></feColorMatrix>
            <feMerge>
                <feMergeNode in="shadowMatrixOuter1"></feMergeNode>
                <feMergeNode in="SourceGraphic"></feMergeNode>
            </feMerge>
        </filter>
        <path d="M9.54626883,0.323116099 L12.8636886,0.22970165 C15.7355324,0.148834072 18.0940243,2.42099169 18.131136,5.2745918 L19.6656105,123.263605 C19.7028975,126.130689 17.4360211,128.778651 14.5914454,129.179539 L9.26577811,129.930089 L9.54626883,0.323116099 Z" id="path-4"></path>
        <filter x="-50%" y="-50%" width="200%" height="200%" filterUnits="objectBoundingBox" id="filter-5">
            <feOffset dx="0" dy="1" in="SourceAlpha" result="shadowOffsetOuter1"></feOffset>
            <feGaussianBlur stdDeviation="1" in="shadowOffsetOuter1" result="shadowBlurOuter1"></feGaussianBlur>
            <feColorMatrix values="0 0 0 0 0   0 0 0 0 0   0 0 0 0 0  0 0 0 0.2 0" type="matrix" in="shadowBlurOuter1"></feColorMatrix>
        </filter>
        <path d="M18.5658507,0.535303468 L79.4517505,0.339063274 C85.8094318,0.318571951 90.9633508,5.46781571 90.9633508,11.8231944 L90.9633508,117.01677 C90.9633508,123.379772 85.7981319,128.538004 79.4389875,128.538004 L0.333199087,128.538004 L18.5658507,0.535303468 Z" id="path-6"></path>
        <filter x="-50%" y="-50%" width="200%" height="200%" filterUnits="objectBoundingBox" id="filter-7">
            <feOffset dx="0" dy="2" in="SourceAlpha" result="shadowOffsetOuter1"></feOffset>
            <feGaussianBlur stdDeviation="1" in="shadowOffsetOuter1" result="shadowBlurOuter1"></feGaussianBlur>
            <feColorMatrix values="0 0 0 0 0   0 0 0 0 0   0 0 0 0 0  0 0 0 0.16 0" type="matrix" in="shadowBlurOuter1"></feColorMatrix>
        </filter>
        <path d="M34.6706274,5.95932955 C36.5287322,3.5809867 36.9888279,3.36733074 38.8707895,2.70156101 L48.1881015,2.70156101 L52.5985443,0.0410454212 L25.3435001,0.0410454212 C23.0709684,0.916452941 24.7417632,3.6245631 24.7417632,3.6245631 C24.1104438,3.66107305 23.8109385,3.6245631 23.8109385,3.6245631 C23.2539842,2.95519087 22.4719579,2.59161548 21.7797014,2.59694995 C20.4089572,2.60713394 19.4323275,3.79104017 19.3176103,4.90234217 C19.3184964,4.89250457 19.3171331,4.88183563 19.3184964,4.87213659 L4.32210451,4.50710634 C4.32210451,4.50710634 1.82490978,4.28278143 1.10975072,1.17056775 L0,1.17056775 L0,9.63096992 L1.10981888,9.63096992 C1.91611096,6.82628505 4.32217267,6.73594543 4.32217267,6.73594543 L12.5265302,6.29851878 L17.2324568,10.7329885 L52.1721209,10.7329885 C52.1721209,10.7329885 56.5888347,6.77515726 57.6434421,5.96785084 L34.6706274,5.95932955 L34.6706274,5.95932955 Z M16.1589684,6.10439945 L19.4529125,5.92856974 C19.4484819,5.91346695 19.4435742,5.89205979 19.4390074,5.8756407 C19.9605173,7.53930295 21.5550384,7.92158363 22.2813761,7.75191973 C23.1477192,7.54941766 23.3386418,7.41279977 23.9996118,6.55658249 L24.755123,6.56060067 C22.4275843,10.5171157 18.6578672,8.26070359 16.1589684,6.10439945 L16.1589684,6.10439945 Z" id="path-8"></path>
        <filter x="-50%" y="-50%" width="200%" height="200%" filterUnits="objectBoundingBox" id="filter-9">
            <feOffset dx="0" dy="1" in="SourceAlpha" result="shadowOffsetOuter1"></feOffset>
            <feGaussianBlur stdDeviation="0.5" in="shadowOffsetOuter1" result="shadowBlurOuter1"></feGaussianBlur>
            <feColorMatrix values="0 0 0 0 0   0 0 0 0 0   0 0 0 0 0  0 0 0 0.23 0" type="matrix" in="shadowBlurOuter1"></feColorMatrix>
        </filter>
        <path d="M34.6706274,5.95932955 C36.5287322,3.5809867 36.9888279,3.36733074 38.8707895,2.70156101 L48.1881015,2.70156101 L52.5985443,0.0410454212 L25.3435001,0.0410454212 C23.0709684,0.916452941 24.7417632,3.6245631 24.7417632,3.6245631 C24.1104438,3.66107305 23.8109385,3.6245631 23.8109385,3.6245631 C23.2539842,2.95519087 22.4719579,2.59161548 21.7797014,2.59694995 C20.4089572,2.60713394 19.4323275,3.79104017 19.3176103,4.90234217 C19.3184964,4.89250457 19.3171331,4.88183563 19.3184964,4.87213659 L4.32210451,4.50710634 C4.32210451,4.50710634 1.82490978,4.28278143 1.10975072,1.17056775 L0,1.17056775 L0,9.63096992 L1.10981888,9.63096992 C1.91611096,6.82628505 4.32217267,6.73594543 4.32217267,6.73594543 L12.5265302,6.29851878 L17.2324568,10.7329885 L52.1721209,10.7329885 C52.1721209,10.7329885 56.5888347,6.77515726 57.6434421,5.96785084 L34.6706274,5.95932955 L34.6706274,5.95932955 Z M16.1589684,6.10439945 L19.4529125,5.92856974 C19.4484819,5.91346695 19.4435742,5.89205979 19.4390074,5.8756407 C19.9605173,7.53930295 21.5550384,7.92158363 22.2813761,7.75191973 C23.1477192,7.54941766 23.3386418,7.41279977 23.9996118,6.55658249 L24.755123,6.56060067 C22.4275843,10.5171157 18.6578672,8.26070359 16.1589684,6.10439945 L16.1589684,6.10439945 Z" id="path-10"></path>
        <filter x="-50%" y="-50%" width="200%" height="200%" filterUnits="objectBoundingBox" id="filter-11">
            <feOffset dx="0" dy="1" in="SourceAlpha" result="shadowOffsetOuter1"></feOffset>
            <feGaussianBlur stdDeviation="0.5" in="shadowOffsetOuter1" result="shadowBlurOuter1"></feGaussianBlur>
            <feColorMatrix values="0 0 0 0 0   0 0 0 0 0   0 0 0 0 0  0 0 0 0.23 0" type="matrix" in="shadowBlurOuter1"></feColorMatrix>
        </filter>
        <path d="M34.6706274,5.95932955 C36.5287322,3.5809867 36.9888279,3.36733074 38.8707895,2.70156101 L48.1881015,2.70156101 L52.5985443,0.0410454212 L25.3435001,0.0410454212 C23.0709684,0.916452941 24.7417632,3.6245631 24.7417632,3.6245631 C24.1104438,3.66107305 23.8109385,3.6245631 23.8109385,3.6245631 C23.2539842,2.95519087 22.4719579,2.59161548 21.7797014,2.59694995 C20.4089572,2.60713394 19.4323275,3.79104017 19.3176103,4.90234217 C19.3184964,4.89250457 19.3171331,4.88183563 19.3184964,4.87213659 L4.32210451,4.50710634 C4.32210451,4.50710634 1.82490978,4.28278143 1.10975072,1.17056775 L0,1.17056775 L0,9.63096992 L1.10981888,9.63096992 C1.91611096,6.82628505 4.32217267,6.73594543 4.32217267,6.73594543 L12.5265302,6.29851878 L17.2324568,10.7329885 L52.1721209,10.7329885 C52.1721209,10.7329885 56.5888347,6.77515726 57.6434421,5.96785084 L34.6706274,5.95932955 L34.6706274,5.95932955 Z M16.1589684,6.10439945 L19.4529125,5.92856974 C19.4484819,5.91346695 19.4435742,5.89205979 19.4390074,5.8756407 C19.9605173,7.53930295 21.5550384,7.92158363 22.2813761,7.75191973 C23.1477192,7.54941766 23.3386418,7.41279977 23.9996118,6.55658249 L24.755123,6.56060067 C22.4275843,10.5171157 18.6578672,8.26070359 16.1589684,6.10439945 L16.1589684,6.10439945 Z" id="path-12"></path>
        <filter x="-50%" y="-50%" width="200%" height="200%" filterUnits="objectBoundingBox" id="filter-13">
            <feOffset dx="0" dy="1" in="SourceAlpha" result="shadowOffsetOuter1"></feOffset>
            <feGaussianBlur stdDeviation="0.5" in="shadowOffsetOuter1" result="shadowBlurOuter1"></feGaussianBlur>
            <feColorMatrix values="0 0 0 0 0   0 0 0 0 0   0 0 0 0 0  0 0 0 0.23 0" type="matrix" in="shadowBlurOuter1"></feColorMatrix>
        </filter>
    </defs>
    <g id="Support-Site" stroke="none" stroke-width="1" fill="none" fill-rule="evenodd">
        <g id="Desktop-Landscape" transform="translate(-635.000000, -245.000000)">
            <g id="Group-11" transform="translate(155.000000, 190.000000)">
                <g id="Group" transform="translate(481.000000, 56.000000)">
                    <g id="Group-6" transform="translate(0.000000, 12.327869)">
                        <g id="Rectangle-2">
                            <use fill="black" fill-opacity="1" filter="url(#filter-2)" xlink:href="#path-1"></use>
                            <use fill="#FFFFFF" fill-rule="evenodd" xlink:href="#path-1"></use>
                        </g>
                        <g id="Group-5" transform="translate(20.228442, 41.885459)">
                            <g id="ic_music_note_black_24px" filter="url(#filter-3)" fill="#FFFFFF">
                                <path d="M14.9226209,0.586396431 L14.9226209,26.216109 C13.5041429,25.3901278 11.8692868,24.8799629 10.1142208,24.8799629 C4.80093875,24.8799629 0.497420696,29.2285112 0.497420696,34.5973894 C0.497420696,39.9662676 4.80093875,44.314816 10.1142208,44.314816 C15.4275029,44.314816 19.7310209,39.9662676 19.7310209,34.5973894 L19.7310209,10.303823 L29.3478211,10.303823 L29.3478211,0.586396431 L14.9226209,0.586396431 Z" id="Shape"></path>
                            </g>
                            <g id="ic_music_note_black_24px-copy" transform="translate(0.331614, 0.335084)" fill="#1A3158">
                                <path d="M14.5910071,0.251312756 L14.5910071,25.8810253 C13.1725291,25.0550441 11.537673,24.5448792 9.78260702,24.5448792 C4.46932495,24.5448792 0.165806899,28.8934276 0.165806899,34.2623058 C0.165806899,39.6311839 4.46932495,43.9797323 9.78260702,43.9797323 C15.0958891,43.9797323 19.3994071,39.6311839 19.3994071,34.2623058 L19.3994071,9.96873933 L29.0162073,9.96873933 L29.0162073,0.251312756 L14.5910071,0.251312756 Z" id="Shape" style="mix-blend-mode: multiply;"></path>
                            </g>
                        </g>
                    </g>
                    <g id="Group-4" transform="translate(54.272251, 0.000000)">
                        <g id="Group-3">
                            <g id="Rectangle-2-Copy-3" transform="translate(14.465598, 65.078855) rotate(8.000000) translate(-14.465598, -65.078855) " fill-opacity="1" fill="black">
                                <use filter="url(#filter-5)" xlink:href="#path-4"></use>
                            </g>
                            <g id="Rectangle-2-Copy">
                                <use fill="black" fill-opacity="1" filter="url(#filter-7)" xlink:href="#path-6"></use>
                                <use fill="#54C7FC" fill-rule="evenodd" xlink:href="#path-6"></use>
                            </g>
                            <path d="M18.5658507,0.535303468 L79.4517505,0.339063274 C85.8094318,0.318571951 90.9633508,5.46781571 90.9633508,11.8231944 L90.9633508,117.01677 C90.9633508,123.379772 85.7981319,128.538004 79.4389875,128.538004 L0.333199087,128.538004 L18.5658507,0.535303468 Z" id="Rectangle-2-Copy-2" fill="#EEEEEE" style="mix-blend-mode: multiply;"></path>
                            <g id="Group-2" transform="translate(26.655927, 34.748815)">
                                <path d="M36.0034238,7.96406888 C37.8615286,5.58572604 38.3216242,5.37207007 40.2035859,4.70630035 L49.5208978,4.70630035 L53.9313407,2.04578476 L26.6762965,2.04578476 C24.4037647,2.92119228 26.0745595,5.62930244 26.0745595,5.62930244 C25.4432401,5.66581239 25.1437349,5.62930244 25.1437349,5.62930244 C24.5867806,4.95993021 23.8047543,4.59635482 23.1124978,4.60168929 C21.7417535,4.61187328 20.7651238,5.79577951 20.6504066,6.9070815 C20.6512927,6.89724391 20.6499295,6.88657496 20.6512927,6.87687593 L5.65490086,6.51184568 C5.65490086,6.51184568 3.15770612,6.28752077 2.44254707,3.17530709 L1.33279635,3.17530709 L1.33279635,11.6357093 L2.44261523,11.6357093 C3.24890731,8.83102438 5.65496902,8.74068477 5.65496902,8.74068477 L13.8593266,8.30325812 L18.5652531,12.7377279 L53.5049172,12.7377279 C53.5049172,12.7377279 57.921631,8.77989659 58.9762384,7.97259018 L36.0034238,7.96406888 L36.0034238,7.96406888 Z M17.4917647,8.10913879 L20.7857088,7.93330907 C20.7812783,7.91820629 20.7763706,7.89679912 20.7718037,7.88038003 C21.2933136,9.54404228 22.8878348,9.92632297 23.6141724,9.75665907 C24.4805155,9.554157 24.6714382,9.41753911 25.3324082,8.56132183 L26.0879193,8.56534 C23.7603806,12.521855 19.9906635,10.2654429 17.4917647,8.10913879 L17.4917647,8.10913879 Z" id="Shape-Copy-3" fill="#EEEEEE" style="mix-blend-mode: multiply;"></path>
                                <g id="Shape">
                                    <use fill="black" fill-opacity="1" filter="url(#filter-9)" xlink:href="#path-8"></use>
                                    <use fill="#FFFFFF" fill-rule="evenodd" xlink:href="#path-8"></use>
                                </g>
                            </g>
                            <g id="Group-2-Copy" transform="translate(21.657941, 59.139810)">
                                <path d="M36.0034238,7.96406888 C37.8615286,5.58572604 38.3216242,5.37207007 40.2035859,4.70630035 L49.5208978,4.70630035 L53.9313407,2.04578476 L26.6762965,2.04578476 C24.4037647,2.92119228 26.0745595,5.62930244 26.0745595,5.62930244 C25.4432401,5.66581239 25.1437349,5.62930244 25.1437349,5.62930244 C24.5867806,4.95993021 23.8047543,4.59635482 23.1124978,4.60168929 C21.7417535,4.61187328 20.7651238,5.79577951 20.6504066,6.9070815 C20.6512927,6.89724391 20.6499295,6.88657496 20.6512927,6.87687593 L5.65490086,6.51184568 C5.65490086,6.51184568 3.15770612,6.28752077 2.44254707,3.17530709 L1.33279635,3.17530709 L1.33279635,11.6357093 L2.44261523,11.6357093 C3.24890731,8.83102438 5.65496902,8.74068477 5.65496902,8.74068477 L13.8593266,8.30325812 L18.5652531,12.7377279 L53.5049172,12.7377279 C53.5049172,12.7377279 57.921631,8.77989659 58.9762384,7.97259018 L36.0034238,7.96406888 L36.0034238,7.96406888 Z M17.4917647,8.10913879 L20.7857088,7.93330907 C20.7812783,7.91820629 20.7763706,7.89679912 20.7718037,7.88038003 C21.2933136,9.54404228 22.8878348,9.92632297 23.6141724,9.75665907 C24.4805155,9.554157 24.6714382,9.41753911 25.3324082,8.56132183 L26.0879193,8.56534 C23.7603806,12.521855 19.9906635,10.2654429 17.4917647,8.10913879 L17.4917647,8.10913879 Z" id="Shape-Copy-3" fill="#EEEEEE" style="mix-blend-mode: multiply;"></path>
                                <g id="Shape">
                                    <use fill="black" fill-opacity="1" filter="url(#filter-11)" xlink:href="#path-10"></use>
                                    <use fill="#FFFFFF" fill-rule="evenodd" xlink:href="#path-10"></use>
                                </g>
                            </g>
                            <g id="Group-2-Copy-2" transform="translate(16.659954, 83.489760)">
                                <path d="M36.0034238,7.96406888 C37.8615286,5.58572604 38.3216242,5.37207007 40.2035859,4.70630035 L49.5208978,4.70630035 L53.9313407,2.04578476 L26.6762965,2.04578476 C24.4037647,2.92119228 26.0745595,5.62930244 26.0745595,5.62930244 C25.4432401,5.66581239 25.1437349,5.62930244 25.1437349,5.62930244 C24.5867806,4.95993021 23.8047543,4.59635482 23.1124978,4.60168929 C21.7417535,4.61187328 20.7651238,5.79577951 20.6504066,6.9070815 C20.6512927,6.89724391 20.6499295,6.88657496 20.6512927,6.87687593 L5.65490086,6.51184568 C5.65490086,6.51184568 3.15770612,6.28752077 2.44254707,3.17530709 L1.33279635,3.17530709 L1.33279635,11.6357093 L2.44261523,11.6357093 C3.24890731,8.83102438 5.65496902,8.74068477 5.65496902,8.74068477 L13.8593266,8.30325812 L18.5652531,12.7377279 L53.5049172,12.7377279 C53.5049172,12.7377279 57.921631,8.77989659 58.9762384,7.97259018 L36.0034238,7.96406888 L36.0034238,7.96406888 Z M17.4917647,8.10913879 L20.7857088,7.93330907 C20.7812783,7.91820629 20.7763706,7.89679912 20.7718037,7.88038003 C21.2933136,9.54404228 22.8878348,9.92632297 23.6141724,9.75665907 C24.4805155,9.554157 24.6714382,9.41753911 25.3324082,8.56132183 L26.0879193,8.56534 C23.7603806,12.521855 19.9906635,10.2654429 17.4917647,8.10913879 L17.4917647,8.10913879 Z" id="Shape-Copy-3" fill="#EEEEEE" style="mix-blend-mode: multiply;"></path>
                                <g id="Shape">
                                    <use fill="black" fill-opacity="1" filter="url(#filter-13)" xlink:href="#path-12"></use>
                                    <use fill="#FFFFFF" fill-rule="evenodd" xlink:href="#path-12"></use>
                                </g>
                            </g>
                        </g>
                        <polygon id="Rectangle" fill="#CCCCCC" style="mix-blend-mode: multiply;" points="0.206222121 128.550632 19.12215 128.550632 17.3808384 140.798669"></polygon>
                    </g>
                </g>
            </g>
        </g>
    </g>
</svg>